# MagicaVoxel @ Ephtracy

# group
o 

# material
mtllib road_ending.mtl
usemtl palette

# normals
vn -1 0 0
vn 1 0 0
vn 0 0 1
vn 0 0 -1
vn 0 -1 0
vn 0 1 0

# texcoords
vt 0.00195312 0.5
vt 0.138672 0.5
vt 0.958984 0.5
vt 0.962891 0.5
vt 0.986328 0.5
vt 0.990234 0.5

# verts
v -2 3.6 1.7
v -2 3.6 -1.7
v -2 3.8 2
v -2 3.8 1.7
v -2 3.8 -1.7
v -2 3.8 -2
v -2 3.9 1.8
v -2 3.9 1.7
v -2 3.9 -1.7
v -2 3.9 -1.8
v -2 4 2
v -2 4 1.8
v -2 4 -1.8
v -2 4 -2
v -1.5 3.3 1.4
v -1.5 3.3 0.8
v -1.5 3.3 -0.8
v -1.5 3.3 -1.4
v -1.5 3.6 1.4
v -1.5 3.6 0.8
v -1.5 3.6 -0.8
v -1.5 3.6 -1.4
v -1.4 2.9 1.3
v -1.4 2.9 0.9
v -1.4 2.9 -0.9
v -1.4 2.9 -1.3
v -1.4 3.3 1.3
v -1.4 3.3 0.9
v -1.4 3.3 -0.9
v -1.4 3.3 -1.3
v -1.3 2.7 1.3
v -1.3 2.7 0.9
v -1.3 2.7 -0.9
v -1.3 2.7 -1.3
v -1.3 2.9 1.3
v -1.3 2.9 0.9
v -1.3 2.9 -0.9
v -1.3 2.9 -1.3
v -1.2 2.6 1.3
v -1.2 2.6 0.9
v -1.2 2.6 -0.9
v -1.2 2.6 -1.3
v -1.2 2.7 1.3
v -1.2 2.7 0.9
v -1.2 2.7 -0.9
v -1.2 2.7 -1.3
v -1 2.5 1.3
v -1 2.5 0.9
v -1 2.5 -0.9
v -1 2.5 -1.3
v -1 2.6 1.3
v -1 2.6 0.9
v -1 2.6 -0.9
v -1 2.6 -1.3
v 0.9 3.3 1.4
v 0.9 3.3 0.8
v 0.9 3.3 -0.8
v 0.9 3.3 -1.4
v 0.9 3.6 1.4
v 0.9 3.6 0.8
v 0.9 3.6 -0.8
v 0.9 3.6 -1.4
v 1 2.9 1.3
v 1 2.9 0.9
v 1 2.9 -0.9
v 1 2.9 -1.3
v 1 3.3 1.3
v 1 3.3 0.9
v 1 3.3 -0.9
v 1 3.3 -1.3
v -1 3 1.3
v -1 3 0.9
v -1 3 -0.9
v -1 3 -1.3
v -1 3.3 1.3
v -1 3.3 0.9
v -1 3.3 -0.9
v -1 3.3 -1.3
v -0.9 2.9 1.3
v -0.9 2.9 0.9
v -0.9 2.9 -0.9
v -0.9 2.9 -1.3
v -0.9 3 1.3
v -0.9 3 0.9
v -0.9 3 -0.9
v -0.9 3 -1.3
v -0.9 3.3 1.4
v -0.9 3.3 0.8
v -0.9 3.3 -0.8
v -0.9 3.3 -1.4
v -0.9 3.6 1.4
v -0.9 3.6 0.8
v -0.9 3.6 -0.8
v -0.9 3.6 -1.4
v 1.4 2.9 1.3
v 1.4 2.9 0.9
v 1.4 2.9 -0.9
v 1.4 2.9 -1.3
v 1.4 3.3 1.3
v 1.4 3.3 0.9
v 1.4 3.3 -0.9
v 1.4 3.3 -1.3
v 1.5 3.3 1.4
v 1.5 3.3 0.8
v 1.5 3.3 -0.8
v 1.5 3.3 -1.4
v 1.5 3.6 1.4
v 1.5 3.6 0.8
v 1.5 3.6 -0.8
v 1.5 3.6 -1.4
v 2 2.5 1.3
v 2 2.5 0.9
v 2 2.5 -0.9
v 2 2.5 -1.3
v 2 2.9 1.3
v 2 2.9 0.9
v 2 2.9 -0.9
v 2 2.9 -1.3
v 2 3.6 1.7
v 2 3.6 -1.7
v 2 3.8 2
v 2 3.8 1.7
v 2 3.8 -1.7
v 2 3.8 -2
v 2 3.9 1.8
v 2 3.9 1.7
v 2 3.9 -1.7
v 2 3.9 -1.8
v 2 4 2
v 2 4 1.8
v 2 4 -1.8
v 2 4 -2
v -2 3.8 2
v -2 4 2
v -1.5 3.8 2
v -1.5 4 2
v -1 3.8 2
v -1 4 2
v -0.5 3.8 2
v -0.5 3.9 2
v -0.5 4 2
v -0.4 3.9 2
v -0.4 4 2
v 2.38419e-07 3.8 2
v 2.38419e-07 4 2
v 0.5 3.8 2
v 0.5 4 2
v 1 3.8 2
v 1 4 2
v 1.5 3.8 2
v 1.5 4 2
v 2 3.8 2
v 2 4 2
v -2 3.6 1.7
v -2 3.8 1.7
v -1.5 3.8 1.7
v -1 3.8 1.7
v -0.5 3.8 1.7
v 2.38419e-07 3.8 1.7
v 0.5 3.8 1.7
v 1 3.8 1.7
v 1.5 3.8 1.7
v 2 3.6 1.7
v 2 3.8 1.7
v -1.5 3.3 1.4
v -1.5 3.6 1.4
v -0.9 3.3 1.4
v -0.9 3.6 1.4
v 0.9 3.3 1.4
v 0.9 3.6 1.4
v 1.5 3.3 1.4
v 1.5 3.6 1.4
v -1.4 2.9 1.3
v -1.4 3.3 1.3
v -1.3 2.7 1.3
v -1.3 2.9 1.3
v -1.2 2.6 1.3
v -1.2 2.7 1.3
v -1 2.5 1.3
v -1 2.6 1.3
v -1 3 1.3
v -1 3.3 1.3
v -0.9 2.9 1.3
v -0.9 3 1.3
v 1 2.9 1.3
v 1 3.3 1.3
v 1.4 2.9 1.3
v 1.4 3.3 1.3
v 2 2.5 1.3
v 2 2.9 1.3
v -1.5 3.3 -0.8
v -1.5 3.6 -0.8
v -0.9 3.3 -0.8
v -0.9 3.6 -0.8
v 0.9 3.3 -0.8
v 0.9 3.6 -0.8
v 1.5 3.3 -0.8
v 1.5 3.6 -0.8
v -1.4 2.9 -0.9
v -1.4 3.3 -0.9
v -1.3 2.7 -0.9
v -1.3 2.9 -0.9
v -1.2 2.6 -0.9
v -1.2 2.7 -0.9
v -1 2.5 -0.9
v -1 2.6 -0.9
v -1 3 -0.9
v -1 3.3 -0.9
v -0.9 2.9 -0.9
v -0.9 3 -0.9
v 1 2.9 -0.9
v 1 3.3 -0.9
v 1.4 2.9 -0.9
v 1.4 3.3 -0.9
v 2 2.5 -0.9
v 2 2.9 -0.9
v -2 3.9 -1.8
v -2 4 -1.8
v -1.5 3.9 -1.8
v -1.5 4 -1.8
v -1 3.9 -1.8
v -1 4 -1.8
v -0.5 3.9 -1.8
v -0.5 4 -1.8
v 2.38419e-07 3.9 -1.8
v 2.38419e-07 4 -1.8
v 0.5 3.9 -1.8
v 0.5 4 -1.8
v 1 3.9 -1.8
v 1 4 -1.8
v 1.5 3.9 -1.8
v 1.5 4 -1.8
v 2 3.9 -1.8
v 2 4 -1.8
v -2 3.9 1.8
v -2 4 1.8
v -1.5 3.9 1.8
v -1.5 4 1.8
v -1 3.9 1.8
v -1 4 1.8
v -0.5 3.9 1.8
v -0.5 4 1.8
v 2.38419e-07 3.9 1.8
v 2.38419e-07 4 1.8
v 0.5 3.9 1.8
v 0.5 4 1.8
v 1 3.9 1.8
v 1 4 1.8
v 1.5 3.9 1.8
v 1.5 4 1.8
v 2 3.9 1.8
v 2 4 1.8
v -1.4 2.9 0.9
v -1.4 3.3 0.9
v -1.3 2.7 0.9
v -1.3 2.9 0.9
v -1.2 2.6 0.9
v -1.2 2.7 0.9
v -1 2.5 0.9
v -1 2.6 0.9
v -1 3 0.9
v -1 3.3 0.9
v -0.9 2.9 0.9
v -0.9 3 0.9
v 1 2.9 0.9
v 1 3.3 0.9
v 1.4 2.9 0.9
v 1.4 3.3 0.9
v 2 2.5 0.9
v 2 2.9 0.9
v -1.5 3.3 0.8
v -1.5 3.6 0.8
v -0.9 3.3 0.8
v -0.9 3.6 0.8
v 0.9 3.3 0.8
v 0.9 3.6 0.8
v 1.5 3.3 0.8
v 1.5 3.6 0.8
v -1.4 2.9 -1.3
v -1.4 3.3 -1.3
v -1.3 2.7 -1.3
v -1.3 2.9 -1.3
v -1.2 2.6 -1.3
v -1.2 2.7 -1.3
v -1 2.5 -1.3
v -1 2.6 -1.3
v -1 3 -1.3
v -1 3.3 -1.3
v -0.9 2.9 -1.3
v -0.9 3 -1.3
v 1 2.9 -1.3
v 1 3.3 -1.3
v 1.4 2.9 -1.3
v 1.4 3.3 -1.3
v 2 2.5 -1.3
v 2 2.9 -1.3
v -1.5 3.3 -1.4
v -1.5 3.6 -1.4
v -0.9 3.3 -1.4
v -0.9 3.6 -1.4
v 0.9 3.3 -1.4
v 0.9 3.6 -1.4
v 1.5 3.3 -1.4
v 1.5 3.6 -1.4
v -2 3.6 -1.7
v -2 3.8 -1.7
v -1.5 3.8 -1.7
v -1 3.8 -1.7
v -0.5 3.8 -1.7
v 2.38419e-07 3.8 -1.7
v 0.5 3.8 -1.7
v 1 3.8 -1.7
v 1.5 3.8 -1.7
v 2 3.6 -1.7
v 2 3.8 -1.7
v -2 3.8 -2
v -2 4 -2
v -1.5 3.8 -2
v -1.5 4 -2
v -1 3.8 -2
v -1 4 -2
v -0.5 3.8 -2
v -0.5 4 -2
v 2.38419e-07 3.8 -2
v 2.38419e-07 4 -2
v 0.5 3.8 -2
v 0.5 4 -2
v 1 3.8 -2
v 1 4 -2
v 1.5 3.8 -2
v 1.5 4 -2
v 2 3.8 -2
v 2 4 -2
v -1 2.5 1.3
v 2 2.5 1.3
v -1 2.5 0.9
v 2 2.5 0.9
v -1 2.5 -0.9
v 2 2.5 -0.9
v -1 2.5 -1.3
v 2 2.5 -1.3
v -1.2 2.6 1.3
v -1 2.6 1.3
v -1.2 2.6 0.9
v -1 2.6 0.9
v -1.2 2.6 -0.9
v -1 2.6 -0.9
v -1.2 2.6 -1.3
v -1 2.6 -1.3
v -1.3 2.7 1.3
v -1.2 2.7 1.3
v -1.3 2.7 0.9
v -1.2 2.7 0.9
v -1.3 2.7 -0.9
v -1.2 2.7 -0.9
v -1.3 2.7 -1.3
v -1.2 2.7 -1.3
v -1.4 2.9 1.3
v -1.3 2.9 1.3
v -1.4 2.9 0.9
v -1.3 2.9 0.9
v -1.4 2.9 -0.9
v -1.3 2.9 -0.9
v -1.4 2.9 -1.3
v -1.3 2.9 -1.3
v -1.5 3.3 1.4
v -0.9 3.3 1.4
v 0.9 3.3 1.4
v 1.5 3.3 1.4
v -1.4 3.3 1.3
v -1 3.3 1.3
v 1 3.3 1.3
v 1.4 3.3 1.3
v -1.4 3.3 0.9
v -1 3.3 0.9
v 1 3.3 0.9
v 1.4 3.3 0.9
v -1.5 3.3 0.8
v -0.9 3.3 0.8
v 0.9 3.3 0.8
v 1.5 3.3 0.8
v -1.5 3.3 -0.8
v -0.9 3.3 -0.8
v 0.9 3.3 -0.8
v 1.5 3.3 -0.8
v -1.4 3.3 -0.9
v -1 3.3 -0.9
v 1 3.3 -0.9
v 1.4 3.3 -0.9
v -1.4 3.3 -1.3
v -1 3.3 -1.3
v 1 3.3 -1.3
v 1.4 3.3 -1.3
v -1.5 3.3 -1.4
v -0.9 3.3 -1.4
v 0.9 3.3 -1.4
v 1.5 3.3 -1.4
v -2 3.6 1.7
v 2 3.6 1.7
v -1.5 3.6 1.4
v -0.9 3.6 1.4
v 0.9 3.6 1.4
v 1.5 3.6 1.4
v -1.5 3.6 0.8
v -0.9 3.6 0.8
v 0.9 3.6 0.8
v 1.5 3.6 0.8
v -1.5 3.6 -0.8
v -0.9 3.6 -0.8
v 0.9 3.6 -0.8
v 1.5 3.6 -0.8
v -1.5 3.6 -1.4
v -0.9 3.6 -1.4
v 0.9 3.6 -1.4
v 1.5 3.6 -1.4
v -2 3.6 -1.7
v 2 3.6 -1.7
v -2 3.8 2
v -1.5 3.8 2
v -1 3.8 2
v -0.5 3.8 2
v 2.38419e-07 3.8 2
v 0.5 3.8 2
v 1 3.8 2
v 1.5 3.8 2
v 2 3.8 2
v -2 3.8 1.7
v -1.5 3.8 1.7
v -1 3.8 1.7
v -0.5 3.8 1.7
v 2.38419e-07 3.8 1.7
v 0.5 3.8 1.7
v 1 3.8 1.7
v 1.5 3.8 1.7
v 2 3.8 1.7
v -2 3.8 -1.7
v -1.5 3.8 -1.7
v -1 3.8 -1.7
v -0.5 3.8 -1.7
v 2.38419e-07 3.8 -1.7
v 0.5 3.8 -1.7
v 1 3.8 -1.7
v 1.5 3.8 -1.7
v 2 3.8 -1.7
v -2 3.8 -2
v -1.5 3.8 -2
v -1 3.8 -2
v -0.5 3.8 -2
v 2.38419e-07 3.8 -2
v 0.5 3.8 -2
v 1 3.8 -2
v 1.5 3.8 -2
v 2 3.8 -2
v -0.9 2.9 1.3
v 1 2.9 1.3
v 1.4 2.9 1.3
v 2 2.9 1.3
v -0.9 2.9 0.9
v 1 2.9 0.9
v 1.4 2.9 0.9
v 2 2.9 0.9
v -0.9 2.9 -0.9
v 1 2.9 -0.9
v 1.4 2.9 -0.9
v 2 2.9 -0.9
v -0.9 2.9 -1.3
v 1 2.9 -1.3
v 1.4 2.9 -1.3
v 2 2.9 -1.3
v -1 3 1.3
v -0.9 3 1.3
v -1 3 0.9
v -0.9 3 0.9
v -1 3 -0.9
v -0.9 3 -0.9
v -1 3 -1.3
v -0.9 3 -1.3
v -2 3.9 1.8
v -1.5 3.9 1.8
v -1 3.9 1.8
v -0.5 3.9 1.8
v 2.38419e-07 3.9 1.8
v 0.5 3.9 1.8
v 1 3.9 1.8
v 1.5 3.9 1.8
v 2 3.9 1.8
v -2 3.9 1.7
v -1.5 3.9 1.7
v -1 3.9 1.7
v -0.5 3.9 1.7
v 2.38419e-07 3.9 1.7
v 0.5 3.9 1.7
v 1 3.9 1.7
v 1.5 3.9 1.7
v 2 3.9 1.7
v -2 3.9 -1.7
v -1.5 3.9 -1.7
v -1 3.9 -1.7
v -0.5 3.9 -1.7
v 2.38419e-07 3.9 -1.7
v 0.5 3.9 -1.7
v 1 3.9 -1.7
v 1.5 3.9 -1.7
v 2 3.9 -1.7
v -2 3.9 -1.8
v -1.5 3.9 -1.8
v -1 3.9 -1.8
v -0.5 3.9 -1.8
v 2.38419e-07 3.9 -1.8
v 0.5 3.9 -1.8
v 1 3.9 -1.8
v 1.5 3.9 -1.8
v 2 3.9 -1.8
v -2 4 2
v -1.5 4 2
v -1 4 2
v -0.5 4 2
v -0.4 4 2
v 2.38419e-07 4 2
v 0.5 4 2
v 1 4 2
v 1.5 4 2
v 2 4 2
v -0.5 4 1.9
v -0.4 4 1.9
v -2 4 1.8
v -1.5 4 1.8
v -1 4 1.8
v -0.5 4 1.8
v 2.38419e-07 4 1.8
v 0.5 4 1.8
v 1 4 1.8
v 1.5 4 1.8
v 2 4 1.8
v -2 4 -1.8
v -1.5 4 -1.8
v -1 4 -1.8
v -0.5 4 -1.8
v 2.38419e-07 4 -1.8
v 0.5 4 -1.8
v 1 4 -1.8
v 1.5 4 -1.8
v 2 4 -1.8
v -2 4 -2
v -1.5 4 -2
v -1 4 -2
v -0.5 4 -2
v 2.38419e-07 4 -2
v 0.5 4 -2
v 1 4 -2
v 1.5 4 -2
v 2 4 -2

# faces
f 4/5/1 2/5/1 1/5/1
f 5/5/1 2/5/1 4/5/1
f 7/2/1 4/2/1 3/2/1
f 8/5/1 5/5/1 4/5/1
f 8/2/1 4/2/1 7/2/1
f 9/2/1 6/2/1 5/2/1
f 9/5/1 5/5/1 8/5/1
f 10/2/1 6/2/1 9/2/1
f 11/2/1 7/2/1 3/2/1
f 12/2/1 7/2/1 11/2/1
f 13/2/1 6/2/1 10/2/1
f 14/2/1 6/2/1 13/2/1
f 19/4/1 16/4/1 15/4/1
f 20/4/1 16/4/1 19/4/1
f 21/4/1 18/4/1 17/4/1
f 22/4/1 18/4/1 21/4/1
f 27/6/1 24/6/1 23/6/1
f 28/6/1 24/6/1 27/6/1
f 29/6/1 26/6/1 25/6/1
f 30/6/1 26/6/1 29/6/1
f 35/6/1 32/6/1 31/6/1
f 36/6/1 32/6/1 35/6/1
f 37/6/1 34/6/1 33/6/1
f 38/6/1 34/6/1 37/6/1
f 43/6/1 40/6/1 39/6/1
f 44/6/1 40/6/1 43/6/1
f 45/6/1 42/6/1 41/6/1
f 46/6/1 42/6/1 45/6/1
f 51/6/1 48/6/1 47/6/1
f 52/6/1 48/6/1 51/6/1
f 53/6/1 50/6/1 49/6/1
f 54/6/1 50/6/1 53/6/1
f 59/4/1 56/4/1 55/4/1
f 60/4/1 56/4/1 59/4/1
f 61/4/1 58/4/1 57/4/1
f 62/4/1 58/4/1 61/4/1
f 67/6/1 64/6/1 63/6/1
f 68/6/1 64/6/1 67/6/1
f 69/6/1 66/6/1 65/6/1
f 70/6/1 66/6/1 69/6/1
f 71/6/2 72/6/2 75/6/2
f 75/6/2 72/6/2 76/6/2
f 73/6/2 74/6/2 77/6/2
f 77/6/2 74/6/2 78/6/2
f 79/6/2 80/6/2 83/6/2
f 83/6/2 80/6/2 84/6/2
f 81/6/2 82/6/2 85/6/2
f 85/6/2 82/6/2 86/6/2
f 87/4/2 88/4/2 91/4/2
f 91/4/2 88/4/2 92/4/2
f 89/4/2 90/4/2 93/4/2
f 93/4/2 90/4/2 94/4/2
f 95/6/2 96/6/2 99/6/2
f 99/6/2 96/6/2 100/6/2
f 97/6/2 98/6/2 101/6/2
f 101/6/2 98/6/2 102/6/2
f 103/4/2 104/4/2 107/4/2
f 107/4/2 104/4/2 108/4/2
f 105/4/2 106/4/2 109/4/2
f 109/4/2 106/4/2 110/4/2
f 111/6/2 112/6/2 115/6/2
f 115/6/2 112/6/2 116/6/2
f 113/6/2 114/6/2 117/6/2
f 117/6/2 114/6/2 118/6/2
f 119/5/2 120/5/2 122/5/2
f 122/5/2 120/5/2 123/5/2
f 121/3/2 122/3/2 125/3/2
f 122/5/2 123/5/2 126/5/2
f 125/3/2 122/3/2 126/3/2
f 123/3/2 124/3/2 127/3/2
f 126/5/2 123/5/2 127/5/2
f 127/3/2 124/3/2 128/3/2
f 121/3/2 125/3/2 129/3/2
f 129/3/2 125/3/2 130/3/2
f 128/3/2 124/3/2 131/3/2
f 131/3/2 124/3/2 132/3/2
f 135/2/3 134/2/3 133/2/3
f 136/2/3 134/2/3 135/2/3
f 137/3/3 136/3/3 135/3/3
f 138/3/3 136/3/3 137/3/3
f 139/2/3 138/2/3 137/2/3
f 140/2/3 138/2/3 139/2/3
f 141/2/3 138/2/3 140/2/3
f 142/3/3 140/3/3 139/3/3
f 142/1/3 141/1/3 140/1/3
f 143/1/3 141/1/3 142/1/3
f 144/3/3 142/3/3 139/3/3
f 144/3/3 143/3/3 142/3/3
f 145/3/3 143/3/3 144/3/3
f 146/2/3 145/2/3 144/2/3
f 147/2/3 145/2/3 146/2/3
f 148/3/3 147/3/3 146/3/3
f 149/3/3 147/3/3 148/3/3
f 150/2/3 149/2/3 148/2/3
f 151/2/3 149/2/3 150/2/3
f 152/3/3 151/3/3 150/3/3
f 153/3/3 151/3/3 152/3/3
f 156/5/3 155/5/3 154/5/3
f 157/5/3 156/5/3 154/5/3
f 158/5/3 157/5/3 154/5/3
f 159/5/3 158/5/3 154/5/3
f 160/5/3 159/5/3 154/5/3
f 161/5/3 160/5/3 154/5/3
f 162/5/3 161/5/3 154/5/3
f 163/5/3 162/5/3 154/5/3
f 164/5/3 162/5/3 163/5/3
f 167/4/3 166/4/3 165/4/3
f 168/4/3 166/4/3 167/4/3
f 171/4/3 170/4/3 169/4/3
f 172/4/3 170/4/3 171/4/3
f 176/6/3 174/6/3 173/6/3
f 178/6/3 176/6/3 175/6/3
f 180/6/3 178/6/3 177/6/3
f 181/6/3 174/6/3 176/6/3
f 181/6/3 176/6/3 178/6/3
f 181/6/3 178/6/3 180/6/3
f 182/6/3 174/6/3 181/6/3
f 183/6/3 180/6/3 179/6/3
f 183/6/3 181/6/3 180/6/3
f 184/6/3 181/6/3 183/6/3
f 185/6/3 183/6/3 179/6/3
f 187/6/3 185/6/3 179/6/3
f 187/6/3 186/6/3 185/6/3
f 188/6/3 186/6/3 187/6/3
f 189/6/3 187/6/3 179/6/3
f 190/6/3 187/6/3 189/6/3
f 193/4/3 192/4/3 191/4/3
f 194/4/3 192/4/3 193/4/3
f 197/4/3 196/4/3 195/4/3
f 198/4/3 196/4/3 197/4/3
f 202/6/3 200/6/3 199/6/3
f 204/6/3 202/6/3 201/6/3
f 206/6/3 204/6/3 203/6/3
f 207/6/3 200/6/3 202/6/3
f 207/6/3 202/6/3 204/6/3
f 207/6/3 204/6/3 206/6/3
f 208/6/3 200/6/3 207/6/3
f 209/6/3 206/6/3 205/6/3
f 209/6/3 207/6/3 206/6/3
f 210/6/3 207/6/3 209/6/3
f 211/6/3 209/6/3 205/6/3
f 213/6/3 211/6/3 205/6/3
f 213/6/3 212/6/3 211/6/3
f 214/6/3 212/6/3 213/6/3
f 215/6/3 213/6/3 205/6/3
f 216/6/3 213/6/3 215/6/3
f 219/2/3 218/2/3 217/2/3
f 220/2/3 218/2/3 219/2/3
f 221/3/3 220/3/3 219/3/3
f 222/3/3 220/3/3 221/3/3
f 223/2/3 222/2/3 221/2/3
f 224/2/3 222/2/3 223/2/3
f 225/3/3 224/3/3 223/3/3
f 226/3/3 224/3/3 225/3/3
f 227/2/3 226/2/3 225/2/3
f 228/2/3 226/2/3 227/2/3
f 229/3/3 228/3/3 227/3/3
f 230/3/3 228/3/3 229/3/3
f 231/2/3 230/2/3 229/2/3
f 232/2/3 230/2/3 231/2/3
f 233/3/3 232/3/3 231/3/3
f 234/3/3 232/3/3 233/3/3
f 235/2/4 236/2/4 237/2/4
f 237/2/4 236/2/4 238/2/4
f 237/3/4 238/3/4 239/3/4
f 239/3/4 238/3/4 240/3/4
f 239/2/4 240/2/4 241/2/4
f 241/2/4 240/2/4 242/2/4
f 241/3/4 242/3/4 243/3/4
f 243/3/4 242/3/4 244/3/4
f 243/2/4 244/2/4 245/2/4
f 245/2/4 244/2/4 246/2/4
f 245/3/4 246/3/4 247/3/4
f 247/3/4 246/3/4 248/3/4
f 247/2/4 248/2/4 249/2/4
f 249/2/4 248/2/4 250/2/4
f 249/3/4 250/3/4 251/3/4
f 251/3/4 250/3/4 252/3/4
f 253/6/4 254/6/4 256/6/4
f 255/6/4 256/6/4 258/6/4
f 257/6/4 258/6/4 260/6/4
f 256/6/4 254/6/4 261/6/4
f 258/6/4 256/6/4 261/6/4
f 260/6/4 258/6/4 261/6/4
f 261/6/4 254/6/4 262/6/4
f 259/6/4 260/6/4 263/6/4
f 260/6/4 261/6/4 263/6/4
f 263/6/4 261/6/4 264/6/4
f 259/6/4 263/6/4 265/6/4
f 259/6/4 265/6/4 267/6/4
f 265/6/4 266/6/4 267/6/4
f 267/6/4 266/6/4 268/6/4
f 259/6/4 267/6/4 269/6/4
f 269/6/4 267/6/4 270/6/4
f 271/4/4 272/4/4 273/4/4
f 273/4/4 272/4/4 274/4/4
f 275/4/4 276/4/4 277/4/4
f 277/4/4 276/4/4 278/4/4
f 279/6/4 280/6/4 282/6/4
f 281/6/4 282/6/4 284/6/4
f 283/6/4 284/6/4 286/6/4
f 282/6/4 280/6/4 287/6/4
f 284/6/4 282/6/4 287/6/4
f 286/6/4 284/6/4 287/6/4
f 287/6/4 280/6/4 288/6/4
f 285/6/4 286/6/4 289/6/4
f 286/6/4 287/6/4 289/6/4
f 289/6/4 287/6/4 290/6/4
f 285/6/4 289/6/4 291/6/4
f 285/6/4 291/6/4 293/6/4
f 291/6/4 292/6/4 293/6/4
f 293/6/4 292/6/4 294/6/4
f 285/6/4 293/6/4 295/6/4
f 295/6/4 293/6/4 296/6/4
f 297/4/4 298/4/4 299/4/4
f 299/4/4 298/4/4 300/4/4
f 301/4/4 302/4/4 303/4/4
f 303/4/4 302/4/4 304/4/4
f 305/5/4 306/5/4 307/5/4
f 305/5/4 307/5/4 308/5/4
f 305/5/4 308/5/4 309/5/4
f 305/5/4 309/5/4 310/5/4
f 305/5/4 310/5/4 311/5/4
f 305/5/4 311/5/4 312/5/4
f 305/5/4 312/5/4 313/5/4
f 305/5/4 313/5/4 314/5/4
f 314/5/4 313/5/4 315/5/4
f 316/2/4 317/2/4 318/2/4
f 318/2/4 317/2/4 319/2/4
f 318/3/4 319/3/4 320/3/4
f 320/3/4 319/3/4 321/3/4
f 320/2/4 321/2/4 322/2/4
f 322/2/4 321/2/4 323/2/4
f 322/3/4 323/3/4 324/3/4
f 324/3/4 323/3/4 325/3/4
f 324/2/4 325/2/4 326/2/4
f 326/2/4 325/2/4 327/2/4
f 326/3/4 327/3/4 328/3/4
f 328/3/4 327/3/4 329/3/4
f 328/2/4 329/2/4 330/2/4
f 330/2/4 329/2/4 331/2/4
f 330/3/4 331/3/4 332/3/4
f 332/3/4 331/3/4 333/3/4
f 336/6/5 335/6/5 334/6/5
f 337/6/5 335/6/5 336/6/5
f 340/6/5 339/6/5 338/6/5
f 341/6/5 339/6/5 340/6/5
f 344/6/5 343/6/5 342/6/5
f 345/6/5 343/6/5 344/6/5
f 348/6/5 347/6/5 346/6/5
f 349/6/5 347/6/5 348/6/5
f 352/6/5 351/6/5 350/6/5
f 353/6/5 351/6/5 352/6/5
f 356/6/5 355/6/5 354/6/5
f 357/6/5 355/6/5 356/6/5
f 360/6/5 359/6/5 358/6/5
f 361/6/5 359/6/5 360/6/5
f 364/6/5 363/6/5 362/6/5
f 365/6/5 363/6/5 364/6/5
f 370/4/5 367/4/5 366/4/5
f 371/4/5 367/4/5 370/4/5
f 372/4/5 369/4/5 368/4/5
f 373/4/5 369/4/5 372/4/5
f 374/4/5 370/4/5 366/4/5
f 375/4/5 367/4/5 371/4/5
f 376/4/5 372/4/5 368/4/5
f 377/4/5 369/4/5 373/4/5
f 378/4/5 374/4/5 366/4/5
f 378/4/5 375/4/5 374/4/5
f 379/4/5 367/4/5 375/4/5
f 379/4/5 375/4/5 378/4/5
f 380/4/5 377/4/5 376/4/5
f 380/4/5 376/4/5 368/4/5
f 381/4/5 369/4/5 377/4/5
f 381/4/5 377/4/5 380/4/5
f 386/4/5 383/4/5 382/4/5
f 387/4/5 383/4/5 386/4/5
f 388/4/5 385/4/5 384/4/5
f 389/4/5 385/4/5 388/4/5
f 390/4/5 386/4/5 382/4/5
f 391/4/5 383/4/5 387/4/5
f 392/4/5 388/4/5 384/4/5
f 393/4/5 385/4/5 389/4/5
f 394/4/5 390/4/5 382/4/5
f 394/4/5 391/4/5 390/4/5
f 395/4/5 383/4/5 391/4/5
f 395/4/5 391/4/5 394/4/5
f 396/4/5 393/4/5 392/4/5
f 396/4/5 392/4/5 384/4/5
f 397/4/5 385/4/5 393/4/5
f 397/4/5 393/4/5 396/4/5
f 400/5/5 399/5/5 398/5/5
f 401/5/5 399/5/5 400/5/5
f 402/5/5 399/5/5 401/5/5
f 403/5/5 399/5/5 402/5/5
f 404/5/5 400/5/5 398/5/5
f 405/5/5 402/5/5 401/5/5
f 406/5/5 402/5/5 405/5/5
f 407/5/5 399/5/5 403/5/5
f 408/5/5 406/5/5 405/5/5
f 408/5/5 407/5/5 406/5/5
f 408/5/5 404/5/5 398/5/5
f 408/5/5 405/5/5 404/5/5
f 409/5/5 407/5/5 408/5/5
f 410/5/5 407/5/5 409/5/5
f 411/5/5 399/5/5 407/5/5
f 411/5/5 407/5/5 410/5/5
f 412/5/5 408/5/5 398/5/5
f 413/5/5 410/5/5 409/5/5
f 414/5/5 410/5/5 413/5/5
f 415/5/5 399/5/5 411/5/5
f 416/5/5 412/5/5 398/5/5
f 416/5/5 415/5/5 414/5/5
f 416/5/5 414/5/5 413/5/5
f 416/5/5 413/5/5 412/5/5
f 417/5/5 399/5/5 415/5/5
f 417/5/5 415/5/5 416/5/5
f 427/2/5 419/2/5 418/2/5
f 428/3/5 420/3/5 419/3/5
f 428/2/5 419/2/5 427/2/5
f 429/2/5 421/2/5 420/2/5
f 429/3/5 420/3/5 428/3/5
f 430/3/5 422/3/5 421/3/5
f 430/2/5 421/2/5 429/2/5
f 431/2/5 423/2/5 422/2/5
f 431/3/5 422/3/5 430/3/5
f 432/3/5 424/3/5 423/3/5
f 432/2/5 423/2/5 431/2/5
f 433/2/5 425/2/5 424/2/5
f 433/3/5 424/3/5 432/3/5
f 434/3/5 426/3/5 425/3/5
f 434/2/5 425/2/5 433/2/5
f 435/3/5 426/3/5 434/3/5
f 445/2/5 437/2/5 436/2/5
f 446/3/5 438/3/5 437/3/5
f 446/2/5 437/2/5 445/2/5
f 447/2/5 439/2/5 438/2/5
f 447/3/5 438/3/5 446/3/5
f 448/3/5 440/3/5 439/3/5
f 448/2/5 439/2/5 447/2/5
f 449/2/5 441/2/5 440/2/5
f 449/3/5 440/3/5 448/3/5
f 450/3/5 442/3/5 441/3/5
f 450/2/5 441/2/5 449/2/5
f 451/2/5 443/2/5 442/2/5
f 451/3/5 442/3/5 450/3/5
f 452/3/5 444/3/5 443/3/5
f 452/2/5 443/2/5 451/2/5
f 453/3/5 444/3/5 452/3/5
f 454/6/6 455/6/6 458/6/6
f 458/6/6 455/6/6 459/6/6
f 456/6/6 457/6/6 460/6/6
f 460/6/6 457/6/6 461/6/6
f 462/6/6 463/6/6 466/6/6
f 466/6/6 463/6/6 467/6/6
f 464/6/6 465/6/6 468/6/6
f 468/6/6 465/6/6 469/6/6
f 470/6/6 471/6/6 472/6/6
f 472/6/6 471/6/6 473/6/6
f 474/6/6 475/6/6 476/6/6
f 476/6/6 475/6/6 477/6/6
f 478/2/6 479/2/6 487/2/6
f 479/3/6 480/3/6 488/3/6
f 487/2/6 479/2/6 488/2/6
f 480/2/6 481/2/6 489/2/6
f 488/3/6 480/3/6 489/3/6
f 481/3/6 482/3/6 490/3/6
f 489/2/6 481/2/6 490/2/6
f 482/2/6 483/2/6 491/2/6
f 490/3/6 482/3/6 491/3/6
f 483/3/6 484/3/6 492/3/6
f 491/2/6 483/2/6 492/2/6
f 484/2/6 485/2/6 493/2/6
f 492/3/6 484/3/6 493/3/6
f 485/3/6 486/3/6 494/3/6
f 493/2/6 485/2/6 494/2/6
f 494/3/6 486/3/6 495/3/6
f 492/5/6 493/5/6 496/5/6
f 487/5/6 488/5/6 496/5/6
f 494/5/6 495/5/6 496/5/6
f 493/5/6 494/5/6 496/5/6
f 491/5/6 492/5/6 496/5/6
f 490/5/6 491/5/6 496/5/6
f 489/5/6 490/5/6 496/5/6
f 488/5/6 489/5/6 496/5/6
f 496/5/6 495/5/6 497/5/6
f 497/5/6 495/5/6 498/5/6
f 498/5/6 495/5/6 499/5/6
f 499/5/6 495/5/6 500/5/6
f 500/5/6 495/5/6 501/5/6
f 501/5/6 495/5/6 502/5/6
f 502/5/6 495/5/6 503/5/6
f 503/5/6 495/5/6 504/5/6
f 496/2/6 497/2/6 505/2/6
f 497/3/6 498/3/6 506/3/6
f 505/2/6 497/2/6 506/2/6
f 498/2/6 499/2/6 507/2/6
f 506/3/6 498/3/6 507/3/6
f 499/3/6 500/3/6 508/3/6
f 507/2/6 499/2/6 508/2/6
f 500/2/6 501/2/6 509/2/6
f 508/3/6 500/3/6 509/3/6
f 501/3/6 502/3/6 510/3/6
f 509/2/6 501/2/6 510/2/6
f 502/2/6 503/2/6 511/2/6
f 510/3/6 502/3/6 511/3/6
f 503/3/6 504/3/6 512/3/6
f 511/2/6 503/2/6 512/2/6
f 512/3/6 504/3/6 513/3/6
f 516/2/6 517/2/6 524/2/6
f 517/1/6 518/1/6 524/1/6
f 518/3/6 519/3/6 525/3/6
f 524/1/6 518/1/6 525/1/6
f 514/2/6 515/2/6 526/2/6
f 515/3/6 516/3/6 527/3/6
f 526/2/6 515/2/6 527/2/6
f 516/2/6 524/2/6 528/2/6
f 527/3/6 516/3/6 528/3/6
f 524/3/6 525/3/6 529/3/6
f 528/2/6 524/2/6 529/2/6
f 525/3/6 519/3/6 530/3/6
f 529/3/6 525/3/6 530/3/6
f 519/2/6 520/2/6 530/2/6
f 520/3/6 521/3/6 531/3/6
f 530/2/6 520/2/6 531/2/6
f 521/2/6 522/2/6 532/2/6
f 531/3/6 521/3/6 532/3/6
f 522/3/6 523/3/6 533/3/6
f 532/2/6 522/2/6 533/2/6
f 533/3/6 523/3/6 534/3/6
f 535/2/6 536/2/6 544/2/6
f 536/3/6 537/3/6 545/3/6
f 544/2/6 536/2/6 545/2/6
f 537/2/6 538/2/6 546/2/6
f 545/3/6 537/3/6 546/3/6
f 538/3/6 539/3/6 547/3/6
f 546/2/6 538/2/6 547/2/6
f 539/2/6 540/2/6 548/2/6
f 547/3/6 539/3/6 548/3/6
f 540/3/6 541/3/6 549/3/6
f 548/2/6 540/2/6 549/2/6
f 541/2/6 542/2/6 550/2/6
f 549/3/6 541/3/6 550/3/6
f 542/3/6 543/3/6 551/3/6
f 550/2/6 542/2/6 551/2/6
f 551/3/6 543/3/6 552/3/6
