# MagicaVoxel @ Ephtracy

# group
o 

# material
mtllib arrow.mtl
usemtl palette

# normals
vn -1 0 0
vn 1 0 0
vn 0 0 1
vn 0 0 -1
vn 0 -1 0
vn 0 1 0

# texcoords
vt 0.958984 0.5
vt 0.974609 0.5
vt 0.986328 0.5

# verts
v -2 3.6 1
v -2 3.6 -1
v -2 3.9 1
v -2 3.9 -1
v -1.9 3.6 1.2
v -1.9 3.6 1
v -1.9 3.6 -1
v -1.9 3.6 -1.2
v -1.9 3.9 1.2
v -1.9 3.9 1
v -1.9 3.9 -1
v -1.9 3.9 -1.2
v -1.8 3.6 1.4
v -1.8 3.6 1.2
v -1.8 3.6 -1.2
v -1.8 3.6 -1.4
v -1.8 3.9 1.4
v -1.8 3.9 1.2
v -1.8 3.9 -1.2
v -1.8 3.9 -1.4
v -1.7 3.6 1.5
v -1.7 3.6 1.4
v -1.7 3.6 -1.4
v -1.7 3.6 -1.5
v -1.7 3.7 1.2
v -1.7 3.7 1.1
v -1.7 3.8 1.2
v -1.7 3.8 1.1
v -1.7 3.9 1.5
v -1.7 3.9 1.4
v -1.7 3.9 -1.4
v -1.7 3.9 -1.5
v -1.5 3.6 1.6
v -1.5 3.6 1.5
v -1.5 3.6 -1.5
v -1.5 3.6 -1.6
v -1.5 3.9 1.6
v -1.5 3.9 1.5
v -1.5 3.9 -1.5
v -1.5 3.9 -1.6
v -1.3 3.6 1.7
v -1.3 3.6 1.6
v -1.3 3.6 -1.6
v -1.3 3.6 -1.7
v -1.3 3.9 1.7
v -1.3 3.9 1.6
v -1.3 3.9 -1.6
v -1.3 3.9 -1.7
v 0.4 3.8 0.6
v 0.4 3.8 0.5
v 0.4 3.8 -0.5
v 0.4 3.8 -0.6
v 0.4 3.9 0.6
v 0.4 3.9 0.5
v 0.4 3.9 -0.5
v 0.4 3.9 -0.6
v 0.6 3.8 0.5
v 0.6 3.8 0.4
v 0.6 3.8 -0.4
v 0.6 3.8 -0.5
v 0.6 3.9 0.5
v 0.6 3.9 0.4
v 0.6 3.9 -0.4
v 0.6 3.9 -0.5
v 0.8 3.8 0.4
v 0.8 3.8 0.3
v 0.8 3.8 -0.3
v 0.8 3.8 -0.4
v 0.8 3.9 0.4
v 0.8 3.9 0.3
v 0.8 3.9 -0.3
v 0.8 3.9 -0.4
v 1 3.8 0.3
v 1 3.8 0.2
v 1 3.8 -0.2
v 1 3.8 -0.3
v 1 3.9 0.3
v 1 3.9 0.2
v 1 3.9 -0.2
v 1 3.9 -0.3
v 1.2 3.8 0.2
v 1.2 3.8 0.0999999
v 1.2 3.8 -0.1
v 1.2 3.8 -0.2
v 1.2 3.9 0.2
v 1.2 3.9 0.0999999
v 1.2 3.9 -0.1
v 1.2 3.9 -0.2
v 1.4 3.8 0.0999999
v 1.4 3.8 -0.1
v 1.4 3.9 0.0999999
v 1.4 3.9 -0.1
v 1.9 3.7 -0.2
v 1.9 3.7 -0.9
v 1.9 3.8 -0.2
v 1.9 3.8 -0.9
v -1.8 3.7 1.2
v -1.8 3.7 1.1
v -1.8 3.8 1.2
v -1.8 3.8 1.1
v -1.6 3.8 0.0999999
v -1.6 3.8 -0.1
v -1.6 3.9 0.0999999
v -1.6 3.9 -0.1
v -1.5 3.8 0.2
v -1.5 3.8 0.0999999
v -1.5 3.8 -0.1
v -1.5 3.8 -0.2
v -1.5 3.9 0.2
v -1.5 3.9 0.0999999
v -1.5 3.9 -0.1
v -1.5 3.9 -0.2
v 0.1 3.8 0.5
v 0.1 3.8 0.2
v 0.1 3.8 -0.2
v 0.1 3.8 -0.5
v 0.1 3.9 0.5
v 0.1 3.9 0.2
v 0.1 3.9 -0.2
v 0.1 3.9 -0.5
v 0.2 3.8 0.6
v 0.2 3.8 0.5
v 0.2 3.8 -0.5
v 0.2 3.8 -0.6
v 0.2 3.9 0.6
v 0.2 3.9 0.5
v 0.2 3.9 -0.5
v 0.2 3.9 -0.6
v 1.3 3.6 1.7
v 1.3 3.6 1.6
v 1.3 3.6 -1.6
v 1.3 3.6 -1.7
v 1.3 3.9 1.7
v 1.3 3.9 1.6
v 1.3 3.9 -1.6
v 1.3 3.9 -1.7
v 1.5 3.6 1.6
v 1.5 3.6 1.5
v 1.5 3.6 -1.5
v 1.5 3.6 -1.6
v 1.5 3.9 1.6
v 1.5 3.9 1.5
v 1.5 3.9 -1.5
v 1.5 3.9 -1.6
v 1.7 3.6 1.5
v 1.7 3.6 1.4
v 1.7 3.6 -1.4
v 1.7 3.6 -1.5
v 1.7 3.9 1.5
v 1.7 3.9 1.4
v 1.7 3.9 -1.4
v 1.7 3.9 -1.5
v 1.8 3.6 1.4
v 1.8 3.6 1.2
v 1.8 3.6 -1.2
v 1.8 3.6 -1.4
v 1.8 3.7 -0.2
v 1.8 3.7 -0.9
v 1.8 3.8 -0.2
v 1.8 3.8 -0.9
v 1.8 3.9 1.4
v 1.8 3.9 1.2
v 1.8 3.9 -1.2
v 1.8 3.9 -1.4
v 1.9 3.6 1.2
v 1.9 3.6 1
v 1.9 3.6 -1
v 1.9 3.6 -1.2
v 1.9 3.9 1.2
v 1.9 3.9 1
v 1.9 3.9 -1
v 1.9 3.9 -1.2
v 2 3.6 1
v 2 3.6 -1
v 2 3.9 1
v 2 3.9 -1
v -1.3 3.6 1.7
v -1.3 3.9 1.7
v 1.3 3.6 1.7
v 1.3 3.9 1.7
v -1.5 3.6 1.6
v -1.5 3.9 1.6
v -1.3 3.6 1.6
v -1.3 3.9 1.6
v 1.3 3.6 1.6
v 1.3 3.9 1.6
v 1.5 3.6 1.6
v 1.5 3.9 1.6
v -1.7 3.6 1.5
v -1.7 3.9 1.5
v -1.5 3.6 1.5
v -1.5 3.9 1.5
v 1.5 3.6 1.5
v 1.5 3.9 1.5
v 1.7 3.6 1.5
v 1.7 3.9 1.5
v -1.8 3.6 1.4
v -1.8 3.9 1.4
v -1.7 3.6 1.4
v -1.7 3.9 1.4
v 1.7 3.6 1.4
v 1.7 3.9 1.4
v 1.8 3.6 1.4
v 1.8 3.9 1.4
v -1.9 3.6 1.2
v -1.9 3.9 1.2
v -1.8 3.6 1.2
v -1.8 3.9 1.2
v 1.8 3.6 1.2
v 1.8 3.9 1.2
v 1.9 3.6 1.2
v 1.9 3.9 1.2
v -1.8 3.7 1.1
v -1.8 3.8 1.1
v -1.7 3.7 1.1
v -1.7 3.8 1.1
v -2 3.6 1
v -2 3.9 1
v -1.9 3.6 1
v -1.9 3.9 1
v 1.9 3.6 1
v 1.9 3.9 1
v 2 3.6 1
v 2 3.9 1
v -1.6 3.8 -0.1
v -1.6 3.9 -0.1
v -1.5 3.8 -0.1
v -1.5 3.9 -0.1
v 1.2 3.8 -0.1
v 1.2 3.9 -0.1
v 1.4 3.8 -0.1
v 1.4 3.9 -0.1
v -1.5 3.8 -0.2
v -1.5 3.9 -0.2
v 0.1 3.8 -0.2
v 0.1 3.9 -0.2
v 1 3.8 -0.2
v 1 3.9 -0.2
v 1.2 3.8 -0.2
v 1.2 3.9 -0.2
v 0.8 3.8 -0.3
v 0.8 3.9 -0.3
v 1 3.8 -0.3
v 1 3.9 -0.3
v 0.6 3.8 -0.4
v 0.6 3.9 -0.4
v 0.8 3.8 -0.4
v 0.8 3.9 -0.4
v 0.1 3.8 -0.5
v 0.1 3.9 -0.5
v 0.2 3.8 -0.5
v 0.2 3.9 -0.5
v 0.4 3.8 -0.5
v 0.4 3.9 -0.5
v 0.6 3.8 -0.5
v 0.6 3.9 -0.5
v 0.2 3.8 -0.6
v 0.2 3.9 -0.6
v 0.4 3.8 -0.6
v 0.4 3.9 -0.6
v 1.8 3.7 -0.9
v 1.8 3.8 -0.9
v 1.9 3.7 -0.9
v 1.9 3.8 -0.9
v -1.8 3.7 1.2
v -1.8 3.8 1.2
v -1.7 3.7 1.2
v -1.7 3.8 1.2
v 0.2 3.8 0.6
v 0.2 3.9 0.6
v 0.4 3.8 0.6
v 0.4 3.9 0.6
v 0.1 3.8 0.5
v 0.1 3.9 0.5
v 0.2 3.8 0.5
v 0.2 3.9 0.5
v 0.4 3.8 0.5
v 0.4 3.9 0.5
v 0.6 3.8 0.5
v 0.6 3.9 0.5
v 0.6 3.8 0.4
v 0.6 3.9 0.4
v 0.8 3.8 0.4
v 0.8 3.9 0.4
v 0.8 3.8 0.3
v 0.8 3.9 0.3
v 1 3.8 0.3
v 1 3.9 0.3
v -1.5 3.8 0.2
v -1.5 3.9 0.2
v 0.1 3.8 0.2
v 0.1 3.9 0.2
v 1 3.8 0.2
v 1 3.9 0.2
v 1.2 3.8 0.2
v 1.2 3.9 0.2
v -1.6 3.8 0.0999999
v -1.6 3.9 0.0999999
v -1.5 3.8 0.0999999
v -1.5 3.9 0.0999999
v 1.2 3.8 0.0999999
v 1.2 3.9 0.0999999
v 1.4 3.8 0.0999999
v 1.4 3.9 0.0999999
v 1.8 3.7 -0.2
v 1.8 3.8 -0.2
v 1.9 3.7 -0.2
v 1.9 3.8 -0.2
v -2 3.6 -1
v -2 3.9 -1
v -1.9 3.6 -1
v -1.9 3.9 -1
v 1.9 3.6 -1
v 1.9 3.9 -1
v 2 3.6 -1
v 2 3.9 -1
v -1.9 3.6 -1.2
v -1.9 3.9 -1.2
v -1.8 3.6 -1.2
v -1.8 3.9 -1.2
v 1.8 3.6 -1.2
v 1.8 3.9 -1.2
v 1.9 3.6 -1.2
v 1.9 3.9 -1.2
v -1.8 3.6 -1.4
v -1.8 3.9 -1.4
v -1.7 3.6 -1.4
v -1.7 3.9 -1.4
v 1.7 3.6 -1.4
v 1.7 3.9 -1.4
v 1.8 3.6 -1.4
v 1.8 3.9 -1.4
v -1.7 3.6 -1.5
v -1.7 3.9 -1.5
v -1.5 3.6 -1.5
v -1.5 3.9 -1.5
v 1.5 3.6 -1.5
v 1.5 3.9 -1.5
v 1.7 3.6 -1.5
v 1.7 3.9 -1.5
v -1.5 3.6 -1.6
v -1.5 3.9 -1.6
v -1.3 3.6 -1.6
v -1.3 3.9 -1.6
v 1.3 3.6 -1.6
v 1.3 3.9 -1.6
v 1.5 3.6 -1.6
v 1.5 3.9 -1.6
v -1.3 3.6 -1.7
v -1.3 3.9 -1.7
v 1.3 3.6 -1.7
v 1.3 3.9 -1.7
v -1.3 3.6 1.7
v 1.3 3.6 1.7
v -1.5 3.6 1.6
v -1.3 3.6 1.6
v 1.3 3.6 1.6
v 1.5 3.6 1.6
v -1.7 3.6 1.5
v -1.5 3.6 1.5
v 1.5 3.6 1.5
v 1.7 3.6 1.5
v -1.8 3.6 1.4
v -1.7 3.6 1.4
v 1.7 3.6 1.4
v 1.8 3.6 1.4
v -1.9 3.6 1.2
v -1.8 3.6 1.2
v 1.8 3.6 1.2
v 1.9 3.6 1.2
v -2 3.6 1
v -1.9 3.6 1
v 1.9 3.6 1
v 2 3.6 1
v -2 3.6 -1
v -1.9 3.6 -1
v 1.9 3.6 -1
v 2 3.6 -1
v -1.9 3.6 -1.2
v -1.8 3.6 -1.2
v 1.8 3.6 -1.2
v 1.9 3.6 -1.2
v -1.8 3.6 -1.4
v -1.7 3.6 -1.4
v 1.7 3.6 -1.4
v 1.8 3.6 -1.4
v -1.7 3.6 -1.5
v -1.5 3.6 -1.5
v 1.5 3.6 -1.5
v 1.7 3.6 -1.5
v -1.5 3.6 -1.6
v -1.3 3.6 -1.6
v 1.3 3.6 -1.6
v 1.5 3.6 -1.6
v -1.3 3.6 -1.7
v 1.3 3.6 -1.7
v -1.8 3.8 1.2
v -1.7 3.8 1.2
v -1.8 3.8 1.1
v -1.7 3.8 1.1
v 1.8 3.8 -0.2
v 1.9 3.8 -0.2
v 1.8 3.8 -0.9
v 1.9 3.8 -0.9
v -1.8 3.7 1.2
v -1.7 3.7 1.2
v -1.8 3.7 1.1
v -1.7 3.7 1.1
v 1.8 3.7 -0.2
v 1.9 3.7 -0.2
v 1.8 3.7 -0.9
v 1.9 3.7 -0.9
v 0.2 3.8 0.6
v 0.4 3.8 0.6
v 0.1 3.8 0.5
v 0.2 3.8 0.5
v 0.4 3.8 0.5
v 0.6 3.8 0.5
v 0.6 3.8 0.4
v 0.8 3.8 0.4
v 0.8 3.8 0.3
v 1 3.8 0.3
v -1.5 3.8 0.2
v 0.1 3.8 0.2
v 1 3.8 0.2
v 1.2 3.8 0.2
v -1.6 3.8 0.0999999
v -1.5 3.8 0.0999999
v 1.2 3.8 0.0999999
v 1.4 3.8 0.0999999
v -1.6 3.8 -0.1
v -1.5 3.8 -0.1
v 1.2 3.8 -0.1
v 1.4 3.8 -0.1
v -1.5 3.8 -0.2
v 0.1 3.8 -0.2
v 1 3.8 -0.2
v 1.2 3.8 -0.2
v 0.8 3.8 -0.3
v 1 3.8 -0.3
v 0.6 3.8 -0.4
v 0.8 3.8 -0.4
v 0.1 3.8 -0.5
v 0.2 3.8 -0.5
v 0.4 3.8 -0.5
v 0.6 3.8 -0.5
v 0.2 3.8 -0.6
v 0.4 3.8 -0.6
v -1.3 3.9 1.7
v 1.3 3.9 1.7
v -1.5 3.9 1.6
v -1.3 3.9 1.6
v 1.3 3.9 1.6
v 1.5 3.9 1.6
v -1.7 3.9 1.5
v -1.5 3.9 1.5
v 1.5 3.9 1.5
v 1.7 3.9 1.5
v -1.8 3.9 1.4
v -1.7 3.9 1.4
v 1.7 3.9 1.4
v 1.8 3.9 1.4
v -1.9 3.9 1.2
v -1.8 3.9 1.2
v 1.8 3.9 1.2
v 1.9 3.9 1.2
v -2 3.9 1
v -1.9 3.9 1
v 1.9 3.9 1
v 2 3.9 1
v 2.38419e-07 3.9 0.9
v 0.2 3.9 0.9
v -0.0999999 3.9 0.8
v 2.38419e-07 3.9 0.8
v 0.2 3.9 0.8
v 0.4 3.9 0.8
v 0.4 3.9 0.7
v 0.6 3.9 0.7
v 0.2 3.9 0.6
v 0.4 3.9 0.6
v 0.6 3.9 0.6
v 0.8 3.9 0.6
v 0.1 3.9 0.5
v 0.2 3.9 0.5
v 0.4 3.9 0.5
v 0.6 3.9 0.5
v 0.8 3.9 0.5
v 1 3.9 0.5
v -1.7 3.9 0.4
v -0.0999999 3.9 0.4
v 0.6 3.9 0.4
v 0.8 3.9 0.4
v 1 3.9 0.4
v 1.2 3.9 0.4
v -1.8 3.9 0.3
v -1.7 3.9 0.3
v 0.8 3.9 0.3
v 1 3.9 0.3
v 1.2 3.9 0.3
v 1.4 3.9 0.3
v -1.5 3.9 0.2
v 0.1 3.9 0.2
v 1 3.9 0.2
v 1.2 3.9 0.2
v 1.4 3.9 0.2
v 1.6 3.9 0.2
v -1.6 3.9 0.0999999
v -1.5 3.9 0.0999999
v 1.2 3.9 0.0999999
v 1.4 3.9 0.0999999
v 1.6 3.9 0.0999999
v 1.7 3.9 0.0999999
v -1.6 3.9 -0.1
v -1.5 3.9 -0.1
v 1.2 3.9 -0.1
v 1.4 3.9 -0.1
v 1.6 3.9 -0.1
v 1.7 3.9 -0.1
v -1.5 3.9 -0.2
v 0.1 3.9 -0.2
v 1 3.9 -0.2
v 1.2 3.9 -0.2
v 1.4 3.9 -0.2
v 1.6 3.9 -0.2
v -1.8 3.9 -0.3
v -1.7 3.9 -0.3
v 0.8 3.9 -0.3
v 1 3.9 -0.3
v 1.2 3.9 -0.3
v 1.4 3.9 -0.3
v -1.7 3.9 -0.4
v -0.0999999 3.9 -0.4
v 0.6 3.9 -0.4
v 0.8 3.9 -0.4
v 1 3.9 -0.4
v 1.2 3.9 -0.4
v 0.1 3.9 -0.5
v 0.2 3.9 -0.5
v 0.4 3.9 -0.5
v 0.6 3.9 -0.5
v 0.8 3.9 -0.5
v 1 3.9 -0.5
v 0.2 3.9 -0.6
v 0.4 3.9 -0.6
v 0.6 3.9 -0.6
v 0.8 3.9 -0.6
v 0.4 3.9 -0.7
v 0.6 3.9 -0.7
v -0.0999999 3.9 -0.8
v 2.38419e-07 3.9 -0.8
v 0.2 3.9 -0.8
v 0.4 3.9 -0.8
v 2.38419e-07 3.9 -0.9
v 0.2 3.9 -0.9
v -2 3.9 -1
v -1.9 3.9 -1
v 1.9 3.9 -1
v 2 3.9 -1
v -1.9 3.9 -1.2
v -1.8 3.9 -1.2
v 1.8 3.9 -1.2
v 1.9 3.9 -1.2
v -1.8 3.9 -1.4
v -1.7 3.9 -1.4
v 1.7 3.9 -1.4
v 1.8 3.9 -1.4
v -1.7 3.9 -1.5
v -1.5 3.9 -1.5
v 1.5 3.9 -1.5
v 1.7 3.9 -1.5
v -1.5 3.9 -1.6
v -1.3 3.9 -1.6
v 1.3 3.9 -1.6
v 1.5 3.9 -1.6
v -1.3 3.9 -1.7
v 1.3 3.9 -1.7

# faces
f 3/3/1 2/3/1 1/3/1
f 4/3/1 2/3/1 3/3/1
f 9/3/1 6/3/1 5/3/1
f 10/3/1 6/3/1 9/3/1
f 11/3/1 8/3/1 7/3/1
f 12/3/1 8/3/1 11/3/1
f 17/3/1 14/3/1 13/3/1
f 18/3/1 14/3/1 17/3/1
f 19/3/1 16/3/1 15/3/1
f 20/3/1 16/3/1 19/3/1
f 27/3/1 26/3/1 25/3/1
f 28/3/1 26/3/1 27/3/1
f 29/3/1 22/3/1 21/3/1
f 30/3/1 22/3/1 29/3/1
f 31/3/1 24/3/1 23/3/1
f 32/3/1 24/3/1 31/3/1
f 37/3/1 34/3/1 33/3/1
f 38/3/1 34/3/1 37/3/1
f 39/3/1 36/3/1 35/3/1
f 40/3/1 36/3/1 39/3/1
f 45/3/1 42/3/1 41/3/1
f 46/3/1 42/3/1 45/3/1
f 47/3/1 44/3/1 43/3/1
f 48/3/1 44/3/1 47/3/1
f 53/1/1 50/1/1 49/1/1
f 54/1/1 50/1/1 53/1/1
f 55/1/1 52/1/1 51/1/1
f 56/1/1 52/1/1 55/1/1
f 61/1/1 58/1/1 57/1/1
f 62/1/1 58/1/1 61/1/1
f 63/1/1 60/1/1 59/1/1
f 64/1/1 60/1/1 63/1/1
f 69/1/1 66/1/1 65/1/1
f 70/1/1 66/1/1 69/1/1
f 71/1/1 68/1/1 67/1/1
f 72/1/1 68/1/1 71/1/1
f 77/1/1 74/1/1 73/1/1
f 78/1/1 74/1/1 77/1/1
f 79/1/1 76/1/1 75/1/1
f 80/1/1 76/1/1 79/1/1
f 85/1/1 82/1/1 81/1/1
f 86/1/1 82/1/1 85/1/1
f 87/1/1 84/1/1 83/1/1
f 88/1/1 84/1/1 87/1/1
f 91/1/1 90/1/1 89/1/1
f 92/1/1 90/1/1 91/1/1
f 95/3/1 94/3/1 93/3/1
f 96/3/1 94/3/1 95/3/1
f 97/3/2 98/3/2 99/3/2
f 99/3/2 98/3/2 100/3/2
f 101/1/2 102/1/2 103/1/2
f 103/1/2 102/1/2 104/1/2
f 105/1/2 106/1/2 109/1/2
f 109/1/2 106/1/2 110/1/2
f 107/1/2 108/1/2 111/1/2
f 111/1/2 108/1/2 112/1/2
f 113/1/2 114/1/2 117/1/2
f 117/1/2 114/1/2 118/1/2
f 115/1/2 116/1/2 119/1/2
f 119/1/2 116/1/2 120/1/2
f 121/1/2 122/1/2 125/1/2
f 125/1/2 122/1/2 126/1/2
f 123/1/2 124/1/2 127/1/2
f 127/1/2 124/1/2 128/1/2
f 129/3/2 130/3/2 133/3/2
f 133/3/2 130/3/2 134/3/2
f 131/3/2 132/3/2 135/3/2
f 135/3/2 132/3/2 136/3/2
f 137/3/2 138/3/2 141/3/2
f 141/3/2 138/3/2 142/3/2
f 139/3/2 140/3/2 143/3/2
f 143/3/2 140/3/2 144/3/2
f 145/3/2 146/3/2 149/3/2
f 149/3/2 146/3/2 150/3/2
f 147/3/2 148/3/2 151/3/2
f 151/3/2 148/3/2 152/3/2
f 157/3/2 158/3/2 159/3/2
f 159/3/2 158/3/2 160/3/2
f 153/3/2 154/3/2 161/3/2
f 161/3/2 154/3/2 162/3/2
f 155/3/2 156/3/2 163/3/2
f 163/3/2 156/3/2 164/3/2
f 165/3/2 166/3/2 169/3/2
f 169/3/2 166/3/2 170/3/2
f 167/3/2 168/3/2 171/3/2
f 171/3/2 168/3/2 172/3/2
f 173/3/2 174/3/2 175/3/2
f 175/3/2 174/3/2 176/3/2
f 179/3/3 178/3/3 177/3/3
f 180/3/3 178/3/3 179/3/3
f 183/3/3 182/3/3 181/3/3
f 184/3/3 182/3/3 183/3/3
f 187/3/3 186/3/3 185/3/3
f 188/3/3 186/3/3 187/3/3
f 191/3/3 190/3/3 189/3/3
f 192/3/3 190/3/3 191/3/3
f 195/3/3 194/3/3 193/3/3
f 196/3/3 194/3/3 195/3/3
f 199/3/3 198/3/3 197/3/3
f 200/3/3 198/3/3 199/3/3
f 203/3/3 202/3/3 201/3/3
f 204/3/3 202/3/3 203/3/3
f 207/3/3 206/3/3 205/3/3
f 208/3/3 206/3/3 207/3/3
f 211/3/3 210/3/3 209/3/3
f 212/3/3 210/3/3 211/3/3
f 215/3/3 214/3/3 213/3/3
f 216/3/3 214/3/3 215/3/3
f 219/3/3 218/3/3 217/3/3
f 220/3/3 218/3/3 219/3/3
f 223/3/3 222/3/3 221/3/3
f 224/3/3 222/3/3 223/3/3
f 227/1/3 226/1/3 225/1/3
f 228/1/3 226/1/3 227/1/3
f 231/1/3 230/1/3 229/1/3
f 232/1/3 230/1/3 231/1/3
f 235/1/3 234/1/3 233/1/3
f 236/1/3 234/1/3 235/1/3
f 239/1/3 238/1/3 237/1/3
f 240/1/3 238/1/3 239/1/3
f 243/1/3 242/1/3 241/1/3
f 244/1/3 242/1/3 243/1/3
f 247/1/3 246/1/3 245/1/3
f 248/1/3 246/1/3 247/1/3
f 251/1/3 250/1/3 249/1/3
f 252/1/3 250/1/3 251/1/3
f 255/1/3 254/1/3 253/1/3
f 256/1/3 254/1/3 255/1/3
f 259/1/3 258/1/3 257/1/3
f 260/1/3 258/1/3 259/1/3
f 263/3/3 262/3/3 261/3/3
f 264/3/3 262/3/3 263/3/3
f 265/3/4 266/3/4 267/3/4
f 267/3/4 266/3/4 268/3/4
f 269/1/4 270/1/4 271/1/4
f 271/1/4 270/1/4 272/1/4
f 273/1/4 274/1/4 275/1/4
f 275/1/4 274/1/4 276/1/4
f 277/1/4 278/1/4 279/1/4
f 279/1/4 278/1/4 280/1/4
f 281/1/4 282/1/4 283/1/4
f 283/1/4 282/1/4 284/1/4
f 285/1/4 286/1/4 287/1/4
f 287/1/4 286/1/4 288/1/4
f 289/1/4 290/1/4 291/1/4
f 291/1/4 290/1/4 292/1/4
f 293/1/4 294/1/4 295/1/4
f 295/1/4 294/1/4 296/1/4
f 297/1/4 298/1/4 299/1/4
f 299/1/4 298/1/4 300/1/4
f 301/1/4 302/1/4 303/1/4
f 303/1/4 302/1/4 304/1/4
f 305/3/4 306/3/4 307/3/4
f 307/3/4 306/3/4 308/3/4
f 309/3/4 310/3/4 311/3/4
f 311/3/4 310/3/4 312/3/4
f 313/3/4 314/3/4 315/3/4
f 315/3/4 314/3/4 316/3/4
f 317/3/4 318/3/4 319/3/4
f 319/3/4 318/3/4 320/3/4
f 321/3/4 322/3/4 323/3/4
f 323/3/4 322/3/4 324/3/4
f 325/3/4 326/3/4 327/3/4
f 327/3/4 326/3/4 328/3/4
f 329/3/4 330/3/4 331/3/4
f 331/3/4 330/3/4 332/3/4
f 333/3/4 334/3/4 335/3/4
f 335/3/4 334/3/4 336/3/4
f 337/3/4 338/3/4 339/3/4
f 339/3/4 338/3/4 340/3/4
f 341/3/4 342/3/4 343/3/4
f 343/3/4 342/3/4 344/3/4
f 345/3/4 346/3/4 347/3/4
f 347/3/4 346/3/4 348/3/4
f 349/3/4 350/3/4 351/3/4
f 351/3/4 350/3/4 352/3/4
f 356/3/5 354/3/5 353/3/5
f 357/3/5 354/3/5 356/3/5
f 360/3/5 356/3/5 355/3/5
f 360/3/5 358/3/5 357/3/5
f 360/3/5 357/3/5 356/3/5
f 361/3/5 358/3/5 360/3/5
f 364/3/5 360/3/5 359/3/5
f 364/3/5 362/3/5 361/3/5
f 364/3/5 361/3/5 360/3/5
f 365/3/5 362/3/5 364/3/5
f 368/3/5 364/3/5 363/3/5
f 368/3/5 366/3/5 365/3/5
f 368/3/5 365/3/5 364/3/5
f 369/3/5 366/3/5 368/3/5
f 372/3/5 368/3/5 367/3/5
f 372/3/5 370/3/5 369/3/5
f 372/3/5 369/3/5 368/3/5
f 373/3/5 370/3/5 372/3/5
f 375/3/5 372/3/5 371/3/5
f 375/3/5 374/3/5 373/3/5
f 375/3/5 373/3/5 372/3/5
f 376/3/5 374/3/5 375/3/5
f 377/3/5 374/3/5 376/3/5
f 378/3/5 374/3/5 377/3/5
f 379/3/5 377/3/5 376/3/5
f 380/3/5 377/3/5 379/3/5
f 381/3/5 377/3/5 380/3/5
f 382/3/5 377/3/5 381/3/5
f 383/3/5 381/3/5 380/3/5
f 384/3/5 381/3/5 383/3/5
f 385/3/5 381/3/5 384/3/5
f 386/3/5 381/3/5 385/3/5
f 387/3/5 385/3/5 384/3/5
f 388/3/5 385/3/5 387/3/5
f 389/3/5 385/3/5 388/3/5
f 390/3/5 385/3/5 389/3/5
f 391/3/5 389/3/5 388/3/5
f 392/3/5 389/3/5 391/3/5
f 393/3/5 389/3/5 392/3/5
f 394/3/5 389/3/5 393/3/5
f 395/3/5 393/3/5 392/3/5
f 396/3/5 393/3/5 395/3/5
f 399/3/5 398/3/5 397/3/5
f 400/3/5 398/3/5 399/3/5
f 403/3/5 402/3/5 401/3/5
f 404/3/5 402/3/5 403/3/5
f 405/3/6 406/3/6 407/3/6
f 407/3/6 406/3/6 408/3/6
f 409/3/6 410/3/6 411/3/6
f 411/3/6 410/3/6 412/3/6
f 413/2/6 414/2/6 416/2/6
f 416/2/6 414/2/6 417/2/6
f 415/2/6 416/2/6 419/2/6
f 417/2/6 418/2/6 419/2/6
f 416/2/6 417/2/6 419/2/6
f 419/2/6 420/2/6 421/2/6
f 415/2/6 419/2/6 424/2/6
f 421/2/6 422/2/6 424/2/6
f 419/2/6 421/2/6 424/2/6
f 424/2/6 422/2/6 425/2/6
f 423/2/6 424/2/6 428/2/6
f 425/2/6 426/2/6 428/2/6
f 424/2/6 425/2/6 428/2/6
f 428/2/6 426/2/6 429/2/6
f 427/2/6 428/2/6 431/2/6
f 429/2/6 430/2/6 431/2/6
f 428/2/6 429/2/6 431/2/6
f 431/2/6 430/2/6 432/2/6
f 432/2/6 430/2/6 433/2/6
f 433/2/6 430/2/6 434/2/6
f 432/2/6 433/2/6 435/2/6
f 435/2/6 433/2/6 436/2/6
f 436/2/6 433/2/6 437/2/6
f 437/2/6 433/2/6 438/2/6
f 436/2/6 437/2/6 439/2/6
f 439/2/6 437/2/6 440/2/6
f 436/2/6 439/2/6 441/2/6
f 441/2/6 439/2/6 442/2/6
f 436/2/6 441/2/6 443/2/6
f 443/2/6 441/2/6 444/2/6
f 444/2/6 441/2/6 445/2/6
f 445/2/6 441/2/6 446/2/6
f 444/2/6 445/2/6 447/2/6
f 447/2/6 445/2/6 448/2/6
f 449/3/6 450/3/6 452/3/6
f 452/3/6 450/3/6 453/3/6
f 451/3/6 452/3/6 456/3/6
f 453/3/6 454/3/6 456/3/6
f 452/3/6 453/3/6 456/3/6
f 456/3/6 454/3/6 457/3/6
f 455/3/6 456/3/6 460/3/6
f 457/3/6 458/3/6 460/3/6
f 456/3/6 457/3/6 460/3/6
f 460/3/6 458/3/6 461/3/6
f 459/3/6 460/3/6 464/3/6
f 461/3/6 462/3/6 464/3/6
f 460/3/6 461/3/6 464/3/6
f 464/3/6 462/3/6 465/3/6
f 463/3/6 464/3/6 468/3/6
f 465/3/6 466/3/6 468/3/6
f 464/3/6 465/3/6 468/3/6
f 468/3/6 466/3/6 469/3/6
f 467/3/6 468/3/6 471/3/6
f 469/3/6 470/3/6 471/3/6
f 468/3/6 469/3/6 471/3/6
f 471/3/6 470/3/6 472/3/6
f 467/3/6 471/3/6 473/3/6
f 471/1/6 472/1/6 474/1/6
f 473/3/6 471/3/6 474/3/6
f 472/3/6 470/3/6 475/3/6
f 474/1/6 472/1/6 475/1/6
f 475/3/6 470/3/6 476/3/6
f 473/1/6 474/1/6 477/1/6
f 476/3/6 470/3/6 477/3/6
f 475/1/6 476/1/6 477/1/6
f 474/1/6 475/1/6 477/1/6
f 477/3/6 470/3/6 478/3/6
f 473/1/6 477/1/6 479/1/6
f 477/1/6 478/1/6 479/1/6
f 479/1/6 478/1/6 480/1/6
f 478/3/6 470/3/6 481/3/6
f 480/1/6 478/1/6 481/1/6
f 481/3/6 470/3/6 482/3/6
f 473/1/6 479/1/6 483/1/6
f 483/1/6 479/1/6 484/1/6
f 481/1/6 482/1/6 485/1/6
f 480/1/6 481/1/6 485/1/6
f 485/1/6 482/1/6 486/1/6
f 482/3/6 470/3/6 487/3/6
f 486/1/6 482/1/6 487/1/6
f 487/3/6 470/3/6 488/3/6
f 467/3/6 473/3/6 489/3/6
f 473/1/6 483/1/6 490/1/6
f 489/3/6 473/3/6 490/3/6
f 487/1/6 488/1/6 491/1/6
f 486/1/6 487/1/6 491/1/6
f 491/1/6 488/1/6 492/1/6
f 488/3/6 470/3/6 493/3/6
f 492/1/6 488/1/6 493/1/6
f 493/3/6 470/3/6 494/3/6
f 467/3/6 489/3/6 495/3/6
f 489/1/6 490/1/6 496/1/6
f 495/3/6 489/3/6 496/3/6
f 493/1/6 494/1/6 497/1/6
f 492/1/6 493/1/6 497/1/6
f 497/1/6 494/1/6 498/1/6
f 494/3/6 470/3/6 499/3/6
f 498/1/6 494/1/6 499/1/6
f 499/3/6 470/3/6 500/3/6
f 496/1/6 490/1/6 501/1/6
f 495/1/6 496/1/6 501/1/6
f 490/1/6 483/1/6 502/1/6
f 501/1/6 490/1/6 502/1/6
f 499/1/6 500/1/6 503/1/6
f 498/1/6 499/1/6 503/1/6
f 503/1/6 500/1/6 504/1/6
f 500/3/6 470/3/6 505/3/6
f 504/1/6 500/1/6 505/1/6
f 505/3/6 470/3/6 506/3/6
f 495/1/6 501/1/6 507/1/6
f 507/1/6 501/1/6 508/1/6
f 505/1/6 506/1/6 509/1/6
f 504/1/6 505/1/6 509/1/6
f 509/1/6 506/1/6 510/1/6
f 506/3/6 470/3/6 511/3/6
f 510/1/6 506/1/6 511/1/6
f 511/3/6 470/3/6 512/3/6
f 495/1/6 507/1/6 513/1/6
f 511/1/6 512/1/6 516/1/6
f 510/1/6 511/1/6 516/1/6
f 516/1/6 512/1/6 517/1/6
f 512/3/6 470/3/6 518/3/6
f 517/1/6 512/1/6 518/1/6
f 513/1/6 514/1/6 519/1/6
f 516/1/6 517/1/6 522/1/6
f 515/1/6 516/1/6 522/1/6
f 522/1/6 517/1/6 523/1/6
f 517/3/6 518/3/6 524/3/6
f 523/1/6 517/1/6 524/1/6
f 519/1/6 520/1/6 525/1/6
f 467/3/6 495/3/6 525/3/6
f 495/1/6 513/1/6 525/1/6
f 513/1/6 519/1/6 525/1/6
f 525/1/6 520/1/6 526/1/6
f 521/1/6 522/1/6 528/1/6
f 522/1/6 523/1/6 528/1/6
f 528/1/6 523/1/6 529/1/6
f 523/3/6 524/3/6 530/3/6
f 529/1/6 523/1/6 530/1/6
f 526/1/6 520/1/6 531/1/6
f 525/3/6 526/3/6 531/3/6
f 531/1/6 520/1/6 532/1/6
f 528/1/6 529/1/6 534/1/6
f 527/1/6 528/1/6 534/1/6
f 534/1/6 529/1/6 535/1/6
f 529/3/6 530/3/6 536/3/6
f 535/1/6 529/1/6 536/1/6
f 532/1/6 520/1/6 537/1/6
f 534/1/6 535/1/6 540/1/6
f 533/1/6 534/1/6 540/1/6
f 540/1/6 535/1/6 541/1/6
f 535/3/6 536/3/6 542/3/6
f 541/1/6 535/1/6 542/1/6
f 537/1/6 538/1/6 543/1/6
f 540/1/6 541/1/6 544/1/6
f 539/1/6 540/1/6 544/1/6
f 544/1/6 541/1/6 545/1/6
f 541/3/6 542/3/6 546/3/6
f 545/1/6 541/1/6 546/1/6
f 544/1/6 545/1/6 547/1/6
f 543/1/6 544/1/6 547/1/6
f 545/3/6 546/3/6 548/3/6
f 547/1/6 545/1/6 548/1/6
f 531/3/6 532/3/6 549/3/6
f 532/1/6 537/1/6 549/1/6
f 537/1/6 543/1/6 549/1/6
f 543/1/6 547/1/6 549/1/6
f 549/1/6 547/1/6 550/1/6
f 550/1/6 547/1/6 551/1/6
f 547/3/6 548/3/6 552/3/6
f 551/1/6 547/1/6 552/1/6
f 550/1/6 551/1/6 553/1/6
f 549/3/6 550/3/6 553/3/6
f 551/3/6 552/3/6 554/3/6
f 553/1/6 551/1/6 554/1/6
f 467/3/6 525/3/6 555/3/6
f 525/3/6 531/3/6 555/3/6
f 553/3/6 554/3/6 555/3/6
f 549/3/6 553/3/6 555/3/6
f 531/3/6 549/3/6 555/3/6
f 555/3/6 554/3/6 556/3/6
f 524/3/6 518/3/6 557/3/6
f 556/3/6 554/3/6 557/3/6
f 518/3/6 470/3/6 557/3/6
f 536/3/6 530/3/6 557/3/6
f 530/3/6 524/3/6 557/3/6
f 542/3/6 536/3/6 557/3/6
f 552/3/6 548/3/6 557/3/6
f 554/3/6 552/3/6 557/3/6
f 546/3/6 542/3/6 557/3/6
f 548/3/6 546/3/6 557/3/6
f 557/3/6 470/3/6 558/3/6
f 556/3/6 557/3/6 559/3/6
f 559/3/6 557/3/6 560/3/6
f 560/3/6 557/3/6 561/3/6
f 561/3/6 557/3/6 562/3/6
f 560/3/6 561/3/6 563/3/6
f 563/3/6 561/3/6 564/3/6
f 564/3/6 561/3/6 565/3/6
f 565/3/6 561/3/6 566/3/6
f 564/3/6 565/3/6 567/3/6
f 567/3/6 565/3/6 568/3/6
f 568/3/6 565/3/6 569/3/6
f 569/3/6 565/3/6 570/3/6
f 568/3/6 569/3/6 571/3/6
f 571/3/6 569/3/6 572/3/6
f 572/3/6 569/3/6 573/3/6
f 573/3/6 569/3/6 574/3/6
f 572/3/6 573/3/6 575/3/6
f 575/3/6 573/3/6 576/3/6
